<svg xmlns="http://www.w3.org/2000/svg" viewBox="0 0 55.2 16.8"><defs><style>.cls-1{fill:#fefefe;}.cls-2{fill:#231f20;}.cls-3{fill:#7d7b7c;}.cls-4{fill:#676565;}.cls-5{fill:#272324;}.cls-6{fill:#2b2728;}.cls-7{fill:#292526;}.cls-8{fill:#2a2627;}.cls-9{fill:#2b2829;}.cls-10{fill:#282425;}.cls-11{fill:#2f2c2d;}.cls-12{fill:#2c2829;}.cls-13{fill:#343031;}.cls-14{fill:#312d2e;}.cls-15{fill:#504d4d;}.cls-16{fill:#4c494a;}.cls-17{fill:#3b3738;}.cls-18{fill:#363233;}.cls-19{fill:#3c3939;}.cls-20{fill:#3e3b3b;}.cls-21{fill:#4c4949;}.cls-22{fill:#282526;}.cls-23{fill:#fbfbfb;}.cls-24{fill:#211e1f;}.cls-25{fill:#0b0909;}.cls-26{fill:#302c2d;}.cls-27{fill:#fdfdfd;}.cls-28{fill:#f6f6f6;}.cls-29{fill:#ededed;}.cls-30{fill:#f5f5f5;}</style></defs><g fr="Layer_2" data-name="Layer 2"><g fr="Layer_1-2" data-name="Layer 1"><path class="cls-1" d="M.05,10c0-3,0-5.94,0-8.91,0-.8.17-1,1-1q25.49,0,51,0c1,0,2.46-.4,3,.11s.11,1.92.11,2.93c0,4.26,0,8.51,0,12.77,0,.7-.14.84-.85.84-9.33,0-18.65,0-28,0a.28.28,0,0,1,.08-.37A13.84,13.84,0,0,0,29,15,6.18,6.18,0,0,0,31,11.82c.4-1.38.51-1.47,2-1.47h.38c-1.9,0-1.9,0-2.44-1.81a6.18,6.18,0,0,0-11.72-.07c-.64,1.87-.64,1.88-2.68,1.88H1.75A2.42,2.42,0,0,1,.05,10Z"/><path class="cls-2" d="M.05,10c5.67,0,11.34,0,17,0,1,0,1.44-.16,1.66-1.3a6.41,6.41,0,0,1,6.35-4.83,6.35,6.35,0,0,1,6.26,4.92C31.56,9.89,32,10,33,10c6.78,0,13.56,0,20.34,0a4,4,0,0,1,.6,0c.27,0,.72-.17.68.37s-.47.28-.74.32a4,4,0,0,1-.6,0c-6.78,0-13.56,0-20.34,0-.91,0-1.35.12-1.56,1.15a6.06,6.06,0,0,1-5.07,4.77,17.38,17.38,0,0,1-2.6.08c-2.7-.16-4.19-1.8-5.12-4.08C17.94,11.06,18,11,16.28,11H1.87a2.59,2.59,0,0,1-1.82-.34Z"/><path class="cls-1" d="M.05,10.69c5.85,0,11.7,0,17.55,0,.69,0,.92.19,1,.88a6.25,6.25,0,0,0,5,5c.1,0,.13.08.11.13s-.05.08-.08.08H.88c-.53,0-1,.08-.83-.71a2.73,2.73,0,0,0,.23-.25c.28-.55.1-1.15.19-1.72s.28-1.49,1.2-1.45,1,.75,1.06,1.45a6.63,6.63,0,0,0,.07,1c.06-.59,0-1.09.07-1.59s.25-.85.77-.91a1,1,0,0,1,1.09.73,5.49,5.49,0,0,1,.18,1.81,4.56,4.56,0,0,0,0-1.56,1.09,1.09,0,0,0-1.65-1c-.22.09-.48.28-.66.14-.71-.59-1.53-.11-2.28-.29a1.32,1.32,0,0,1-.29-.19Z"/><path class="cls-3" d="M.05,12.33H.28a5.89,5.89,0,0,1,0,3.78l-.22,0Z"/><path class="cls-4" d="M23.62,16.78a.2.2,0,0,0,0-.21h2.69l0,.2Z"/><path class="cls-5" d="M13.86,7a26.25,26.25,0,0,1-5.24.29c-.76,0-1.71-.32-1.69,1,0,.29-.39.46-.75.51a20,20,0,0,0-.07-4.44c-.09-.5.3-.65.58-.69s.34.36.36.61c0,.43,0,.86,0,1.29C7.07,7,7.07,7,8.63,6.81c-.55-.72,0-1.58-.5-2.38-.17-.26.57-.84,1.21-.84A3.63,3.63,0,0,0,11,3.36c-.5.34-.47,1.17-1.47,1.07-.5,0-.2.93-.24,1.43a.86.86,0,0,0,.72,1c1.61.33,1.92,0,2-1.53,0-.44-.43-.9,0-1.29.24-.22.44-.74.78-.58.5.23,1.18.43,1.2,1.15s0,1.33,0,2A.2.2,0,0,1,13.86,7Z"/><path class="cls-6" d="M41.49,7.17C42.58,7.38,43,7,42.81,5.88c-.12-.65.25-1.37-.31-2-.09-.1.32-.62.54-1,.44.53.79,1,1.54.64a2.5,2.5,0,0,1,1.41,0c.68.13,1.33.36.91,1.3a1.8,1.8,0,0,0,0,.7c0,2.16,0,2.19-2.26,2.15A12.14,12.14,0,0,1,41,7.39C41,7,41.22,7,41.49,7.17Z"/><path class="cls-7" d="M41.49,7.17a.56.56,0,0,0-.49.22c-1.1.5-2.24.09-3.31.22a18.94,18.94,0,0,0-.08-6.06A.74.74,0,0,1,38,.65c.48-.15.54.38.55.67,0,1.6,0,3.19,0,4.79,0,.55-.21,1.14.82,1.11s1.2-.38,1.06-1.19c-.1-.54.21-1.1-.24-1.65-.29-.34.2-.77.45-.89s.48.28.56.55C41.59,5.06,41.25,6.14,41.49,7.17Z"/><path class="cls-8" d="M51.4,3.21c.84,1.42.52,2.71.42,4,0,.38-.5.43-.88.43H48.06a27.5,27.5,0,0,0-.06-6c-.09-.52.15-.85.37-.91.43-.11.55.35.55.69,0,1.63.06,3.27,0,4.91,0,.71.15,1,.91.93s1.33.09,1.19-.92c-.08-.61.15-1.25-.15-1.84S51.16,3.74,51.4,3.21Z"/><path class="cls-7" d="M31.92,14.16v-.58c0-1.24.42-1.74,1.58-1.36a3.18,3.18,0,0,0,2,0,1.06,1.06,0,0,1,1.3.77,10.41,10.41,0,0,1,.11,2.9c0,.23-.17.32-.4.29s-.29-.2-.29-.41c0-.66,0-1.33,0-2,0-.48-.15-.89-.69-.9s-.75.38-.76.85c0,.66,0,1.33,0,2,0,.24,0,.47-.35.47s-.35-.23-.35-.47c0-.63,0-1.25,0-1.87s-.17-1-.78-1-.71.52-.72,1v1.63c0,.26.08.62-.31.64s-.35-.41-.36-.68C31.9,15,31.92,14.59,31.92,14.16Z"/><path class="cls-6" d="M33.51,3.25a4.64,4.64,0,0,0-.34,2.35c0,1.47.87,2.06,2.28,1.56a.53.53,0,0,0,.38-.63c-.06-.69.18-1.41-.16-2.07a.7.7,0,0,1,.47-1c.32-.12.51.37.52.63a16.64,16.64,0,0,1,0,2.91c-.09.73-.85.64-1.36.58-1-.12-2.18.54-2.83-.51-.41-.64.15-1.61-.4-2.34C32.67,4.48,32.77,3.76,33.51,3.25Z"/><path class="cls-9" d="M50.48,14.29a2.05,2.05,0,0,1-2.25,1.91A2,2,0,0,1,46.28,14a2.11,2.11,0,0,1,4.2.28Z"/><path class="cls-10" d="M45.67,16c-.87.29-1.06-.28-1.34-.66s-.42-.55-.84-.51c-.6.06-.35.5-.38.8s-.06.46-.36.48-.35-.25-.35-.48V12.76c0-.11,0-.3.06-.32a3.42,3.42,0,0,1,2.5,0A1,1,0,0,1,45.45,14C44.66,14.84,45.07,15.38,45.67,16Z"/><path class="cls-11" d="M1.92,3.55c0,.85,0,1.7,0,2.54s.61.81,1.19.8,1.38.22,1.28-.82c0-.57.18-1.16-.15-1.7s.28-.69.42-1.06a5.07,5.07,0,0,1,.49,3.53.71.71,0,0,1-.67.39,3.84,3.84,0,0,1-.83,0c-.78-.14-1.73.4-2.35-.32S1.37,5.43.9,4.68C.73,4.4,1.68,4.08,1.92,3.55Z"/><path class="cls-7" d="M41.35,14.71c0,.23,0,.47,0,.7s.18.68-.31.74-.35-.28-.39-.56c-.11-.67-.68-.37-1-.38s-.94-.27-1,.47c0,.25,0,.49-.35.46s-.33-.35-.34-.61c0-.5,0-1,0-1.51,0-1.24.67-1.9,1.77-1.88s1.58.64,1.63,1.87C41.36,14.24,41.35,14.48,41.35,14.71Z"/><path class="cls-12" d="M51.77,14.16a1.39,1.39,0,0,0,2,1.25c.26-.1.57-.49.77,0s-.29.5-.53.62a2.1,2.1,0,0,1-2.55-.62,1.87,1.87,0,0,1,.07-2.48,2,2,0,0,1,2.56-.56c.24.11.7.2.51.63s-.52.08-.77,0A1.41,1.41,0,0,0,51.77,14.16Z"/><path class="cls-13" d="M17.63,8.31a2.56,2.56,0,0,1-.91-2.13,12.56,12.56,0,0,0-.15-4.61.62.62,0,0,1,.52-.76c.34,0,.42.41.42.72,0,1.56,0,3.12,0,4.68A7.84,7.84,0,0,0,17.63,8.31Z"/><path class="cls-14" d="M52.7,9.29a11.51,11.51,0,0,0,.15-4.67c-.07-.64.27-.83.56-.89.51-.09.45.42.45.74,0,1.21,0,2.42,0,3.63C53.89,8.9,53.39,9.18,52.7,9.29Z"/><path class="cls-8" d="M13.86,7l0-.31c.73.53,1.13.34,1-.54-.14-1.53.35-3.08-.26-4.6-.11-.27.23-.73.54-.79s.5.38.5.65c0,1.75.07,3.51,0,5.26C15.7,7.35,14.89,7.47,13.86,7Z"/><path class="cls-15" d="M50.31,8.3s.07,0,.11,0c.38-.05.72-.69,1.15-.08a.44.44,0,0,1-.07.61c-.51.58-.75-.31-1.16-.2A.27.27,0,0,1,50.31,8.3Z"/><path class="cls-16" d="M40.3,8.31c.24.1.34-.11.49-.21a.49.49,0,0,1,.71.11.44.44,0,0,1,0,.61.46.46,0,0,1-.77,0,2.15,2.15,0,0,0-.4-.21A.26.26,0,0,1,40.3,8.31Z"/><path class="cls-17" d="M44.75,1.73c.3.06.52.21.5.53a.5.5,0,0,1-.55.47.48.48,0,0,1-.49-.53C44.22,1.9,44.44,1.75,44.75,1.73Z"/><path class="cls-18" d="M33.94,2.76c-.3,0-.53-.11-.56-.44s.2-.48.5-.5a.41.41,0,0,1,.48.39A.42.42,0,0,1,33.94,2.76Z"/><path class="cls-17" d="M35.23,1.81a.49.49,0,0,1,.5.49c0,.33-.22.47-.52.48a.39.39,0,0,1-.44-.42C34.77,2.08,34.84,1.83,35.23,1.81Z"/><path class="cls-19" d="M50.31,8.3l0,.37c-.14.47-.42.48-.75.19a.4.4,0,0,1-.07-.6C49.78,8,50.07,7.86,50.31,8.3Z"/><path class="cls-20" d="M40.3,8.31l0,.34c-.14.48-.43.5-.78.21a.4.4,0,0,1-.07-.61C39.75,7.94,40.06,7.88,40.3,8.31Z"/><path class="cls-21" d="M9.45,2.79c-.3,0-.53-.16-.5-.49a.47.47,0,0,1,.43-.46.5.5,0,0,1,.57.45C10,2.61,9.76,2.76,9.45,2.79Z"/><path class="cls-22" d="M3.15,8.57c-.27,0-.45-.18-.46-.44a.44.44,0,0,1,.54-.47.43.43,0,0,1,.39.49A.44.44,0,0,1,3.15,8.57Z"/><path class="cls-23" d="M25.21,10.85a6.23,6.23,0,0,1-2.13,1.68,1.75,1.75,0,0,1-2.35-1.13c-.42-1.44-.16-2.33.87-3a2.18,2.18,0,0,1,2.63.25,1.17,1.17,0,0,1,.53,1.05.78.78,0,0,1-1.15,0,1.32,1.32,0,0,0-1-.37.83.83,0,0,0-.77.62.9.9,0,0,0,.21,1,.86.86,0,0,0,1.08.13c.64-.33,1-1,1.56-1.39.61-.15.82-.77,1.3-1.08a2.38,2.38,0,0,1,2.66-.23,2.07,2.07,0,0,1,.89,2.34,2,2,0,0,1-1.77,1.77A2.49,2.49,0,0,1,25.34,11c.58-1,1.11-.17,1.64.07s.84.36,1.15-.12a1,1,0,0,0-.26-1.35c-.41-.33-.83-.14-1.2.13S25.73,10.51,25.21,10.85Z"/><path class="cls-24" d="M24.73,9.74a3.07,3.07,0,0,1-1.2,1.51,1.14,1.14,0,0,1-1.76-.05,1.19,1.19,0,0,1,0-1.76,1.25,1.25,0,0,1,1.79-.13c.37.27.63.72,1.19.44Z"/><path class="cls-25" d="M20.73,11.4a2.52,2.52,0,0,0,2.35,1.13l.28.16A1.87,1.87,0,0,1,20.73,11.4Z"/><path class="cls-8" d="M.27,16.1V12.32c.79.13,1.68-.55,2.4.32.14.17.29-.17.45-.25,1-.52,2-.11,2.11,1a22.6,22.6,0,0,1,0,2.33c0,.28-.08.45-.39.44s-.32-.28-.32-.5c0-.63,0-1.25,0-1.87s-.15-.91-.67-.94-.79.43-.82.93,0,1.25,0,1.87c0,.26,0,.49-.35.5s-.31-.28-.32-.51c0-.62,0-1.25,0-1.87,0-.44-.17-.9-.71-.92s-.79.44-.82.93,0,1.17,0,1.76C.85,15.92.82,16.26.27,16.1Z"/><path class="cls-7" d="M9.62,14.7a5.45,5.45,0,0,1,0,.7c0,.27.17.69-.32.74s-.34-.29-.4-.56c-.12-.67-.69-.34-1.06-.37S7,15,7,15.64c0,.31,0,.57-.44.49s-.25-.42-.26-.66c0-.54,0-1.09,0-1.64A1.61,1.61,0,0,1,8,12.14c1,0,1.59.62,1.65,1.74C9.63,14.15,9.62,14.42,9.62,14.7Z"/><path class="cls-26" d="M14.53,14.19c0-.42,0-.85,0-1.28,0-.25-.11-.63.31-.62s.39.44.35.71c-.13.82.26,1,1,1s1.1-.16,1-1c0-.25-.2-.72.32-.71s.32.45.33.73c0,.86,0,1.71,0,2.57,0,.29,0,.58-.41.54s-.27-.34-.25-.54c.07-.68-.05-1.06-.92-1s-1.2.16-1.05,1c0,.28,0,.59-.39.56s-.28-.31-.29-.53C14.52,15.13,14.53,14.66,14.53,14.19Z"/><path class="cls-26" d="M12.4,12.87a12.05,12.05,0,0,1,0,1.6c-.09.56.36,1.61-.31,1.59-.84,0-.23-1.07-.37-1.65a6.35,6.35,0,0,1,0-1.38.66.66,0,0,0-.21-.12c-.38,0-.89.63-1.09,0s.58-.55.95-.69a2.47,2.47,0,0,1,1.85.13c.24.11.72.11.52.58s-.52.11-.79.06Z"/><path class="cls-27" d="M13,4.21a4.14,4.14,0,0,1,0,2.44A2.63,2.63,0,0,1,13,4.21Z"/><path class="cls-23" d="M43.66,5.66c.06-.68-.3-1.54.84-1.72,1-.16,1.47.25,1.5,1.21,0,.16,0,.31,0,.47,0,.9.1,1.74-1.28,1.59C43.55,7.08,43.66,7.49,43.66,5.66Z"/><path class="cls-23" d="M48.34,12.76c.87.1,1.44.56,1.43,1.42a1.4,1.4,0,0,1-2.79.07C46.93,13.39,47.48,12.91,48.34,12.76Z"/><path class="cls-28" d="M43.7,14.24c-.51.1-.61-.2-.62-.72s.22-.75.76-.69,1,0,1,.68S44.31,14.21,43.7,14.24Z"/><path class="cls-29" d="M39.6,14.61c-.46,0-1.05.18-1-.62.06-.64.25-1.17,1-1.2s1,.57,1.05,1.24C40.7,14.93,40,14.48,39.6,14.61Z"/><path class="cls-2" d="M25.21,10.85a4.51,4.51,0,0,1,1.52-1.58c.55-.33,1.11-.49,1.64.18a1.3,1.3,0,0,1,0,1.79c-.49.62-1.13.38-1.69,0S26,10.31,25.34,11Z"/><path class="cls-30" d="M7.7,14.58c-.22,0-.85.23-.78-.65.06-.67.29-1.15,1-1.14s.9.47,1,1.09C9,14.7,8.47,14.62,7.7,14.58Z"/></g></g></svg>